<svg width="798" height="798" viewBox="0 0 798 798" fill="none" xmlns="http://www.w3.org/2000/svg">
<path fill-rule="evenodd" clip-rule="evenodd" d="M42.0598 241.058L241.058 755.94L755.94 556.942L556.942 42.0597L42.0598 241.058ZM16.618 225.161C13.5271 226.355 11.9899 229.829 13.1845 232.92L225.161 781.382C226.355 784.473 229.829 786.01 232.92 784.815L781.382 572.839C784.473 571.644 786.01 568.17 784.815 565.08L572.839 16.618C571.645 13.5271 568.17 11.9898 565.08 13.1844L16.618 225.161Z" fill="#818CF8" stroke="#818CF8" stroke-width="24"/>
<path fill-rule="evenodd" clip-rule="evenodd" d="M93.6549 77.6159C96.3845 76.2277 99.4268 75.3423 102.67 75.0903C103.443 75.0303 104.22 75 105 75H134.4C147.655 75 158.4 85.7452 158.4 99C158.4 112.255 147.655 123 134.4 123H123V134.4C123 147.655 112.255 158.4 99 158.4C85.7452 158.4 75 147.655 75 134.4V105C75 104.22 75.0303 103.443 75.0903 102.67C75.2146 101.07 75.4929 99.5198 75.9097 98.0314C76.2131 96.5106 76.6692 94.997 77.2859 93.51C79.1204 89.086 81.9631 85.2254 85.5081 82.1949C87.9761 80.0851 90.7486 78.5632 93.6549 77.6159ZM228 99C228 85.7452 238.745 75 252 75H428.4C441.655 75 452.4 85.7452 452.4 99C452.4 112.255 441.655 123 428.4 123H252C238.745 123 228 112.255 228 99ZM639.6 99C639.6 85.7452 650.345 75 663.6 75H693C693.78 75 694.557 75.0303 695.33 75.0903C696.93 75.2146 698.48 75.4929 699.969 75.9097C701.489 76.2131 703.003 76.6692 704.49 77.2859C708.914 79.1204 712.775 81.9631 715.805 85.5081C717.915 87.9761 719.437 90.7486 720.384 93.6549C721.772 96.3845 722.658 99.4268 722.91 102.67C722.97 103.443 723 104.22 723 105V134.4C723 147.655 712.255 158.4 699 158.4C685.745 158.4 675 147.655 675 134.4V123H663.6C650.345 123 639.6 112.255 639.6 99ZM699 228C712.255 228 723 238.745 723 252V428.4C723 441.655 712.255 452.4 699 452.4C685.745 452.4 675 441.655 675 428.4V252C675 238.745 685.745 228 699 228ZM99 345.6C112.255 345.6 123 356.345 123 369.6V546C123 559.255 112.255 570 99 570C85.7452 570 75 559.255 75 546V369.6C75 356.345 85.7452 345.6 99 345.6ZM99 639.6C112.255 639.6 123 650.345 123 663.6V675H134.4C147.655 675 158.4 685.745 158.4 699C158.4 712.255 147.655 723 134.4 723H105C104.22 723 103.443 722.97 102.67 722.91C101.07 722.785 99.5195 722.507 98.0311 722.09C96.5104 721.787 94.9969 721.331 93.51 720.714C89.086 718.88 85.2254 716.037 82.1949 712.492C80.0851 710.024 78.5632 707.251 77.6159 704.345C76.2277 701.615 75.3423 698.573 75.0903 695.33C75.0303 694.557 75 693.78 75 693V663.6C75 650.345 85.7452 639.6 99 639.6ZM699 639.6C712.255 639.6 723 650.345 723 663.6V693C723 693.78 722.97 694.557 722.91 695.33C722.785 696.93 722.507 698.48 722.09 699.969C721.787 701.49 721.331 703.003 720.714 704.49C718.88 708.914 716.037 712.775 712.492 715.805C710.024 717.915 707.251 719.437 704.345 720.384C701.615 721.772 698.573 722.658 695.33 722.91C694.557 722.97 693.78 723 693 723H663.6C650.345 723 639.6 712.255 639.6 699C639.6 685.745 650.345 675 663.6 675H675V663.6C675 650.345 685.745 639.6 699 639.6ZM345.6 699C345.6 685.745 356.345 675 369.6 675H546C559.255 675 570 685.745 570 699C570 712.255 559.255 723 546 723H369.6C356.345 723 345.6 712.255 345.6 699Z" fill="#E5E7EB"/>
</svg>
